# xmcd CD database file generated by Grip 2.91
# 
# Track frame offsets:
#       150
#       28947
#       54572
#       78907
#       117492
#       138560
#       162460
# 
# Disc length: 2328 seconds
# 
# Revision: 3
# Processed by: cddbd v1.4b41PL1 Copyright (c) Steve Scherf et al.
# Submitted via: Grip 2.91
# 
DISCID=5f091607
DTITLE=Ahmad Jamal - Baia
DYEAR=1900
DGENRE=
TTITLE0=Waltz for Debby
TTITLE1=Folks Who Live on the Hill
TTITLE2=People
TTITLE3=Baia
TTITLE4=The Good Life
TTITLE5=Autumn in New York
TTITLE6=I've Never Been in Love Before
EXTD=\n\n\n
EXTT0=
EXTT1=
EXTT2=
EXTT3=
EXTT4=
EXTT5=
EXTT6=
PLAYORDER=
